<svg id="Layer_1" data-name="Layer 1" xmlns="http://www.w3.org/2000/svg" viewBox="0 0 208.18 208.32"><defs><style>.cls-1{fill:none;}.cls-2{fill:#fff;}</style></defs><path class="cls-1" d="M108.42,73.28h-.24a34.54,34.54,0,1,0,.24,0Z" transform="translate(-4.24 -3.84)"/><path class="cls-1" d="M191.38,54.58c-2.92-16-13.76-27.82-29.64-29.58A490.13,490.13,0,0,0,54.67,25C38.26,26.76,26.56,38.7,24.81,55.15a491.86,491.86,0,0,0,0,106.16c1.82,16.64,13.29,28.18,29.92,30a481.09,481.09,0,0,0,106.21,0c17.35-1.94,27.42-13,30.52-30.49s1.55-35.11,2.1-52.67C193.08,90.29,194.61,72.35,191.38,54.58Zm-83,106.81c-29.1.32-53.71-24.1-53.68-53.29,0-28.89,23.88-52.89,52.88-53.2,28.81-.3,53.09,23.41,53.67,52.41S137.75,161.06,108.42,161.39Zm55.89-96.72H164a12.07,12.07,0,1,1,11.67-12.45,1.69,1.69,0,0,1,0,.23A11.8,11.8,0,0,1,164.31,64.67Z" transform="translate(-4.24 -3.84)"/><path class="cls-2" d="M210.42,58.85c-2.5-31.16-22.21-50.69-53.56-53.09A619.2,619.2,0,0,0,56.51,6c-28,2.38-47.65,22.39-50.8,50.26C3.77,73.52,4.24,90.83,4.44,108.14q0,18.18,0,36.39c0,47.27,27.19,66,61.61,66.79,30.59.7,61.19,1.82,91.73-.81,30.21-2.6,50-22.11,52.56-52.25A606.56,606.56,0,0,0,210.42,58.85Zm-19,102c-3.1,17.47-13.17,28.55-30.52,30.49a481.09,481.09,0,0,1-106.21,0c-16.63-1.82-28.1-13.36-29.92-30a491.86,491.86,0,0,1,0-106.16C26.56,38.7,38.26,26.76,54.67,25a490.13,490.13,0,0,1,107.07,0c15.88,1.76,26.72,13.6,29.64,29.58,3.23,17.77,1.7,35.71,2.18,53.57C193,125.71,194.56,143.35,191.46,160.82Z" transform="translate(-4.24 -3.84)"/><path class="cls-2" d="M107.62,54.9c-29,.31-52.88,24.31-52.88,53.2,0,29.19,24.58,53.61,53.68,53.29,29.33-.33,53.45-25.08,52.87-54.08S136.43,54.6,107.62,54.9Zm.22,88a34.83,34.83,0,0,1,.34-69.66h.24a34.83,34.83,0,0,1-.58,69.66Z" transform="translate(-4.24 -3.84)"/><path class="cls-2" d="M163.22,40.55A12.07,12.07,0,0,0,164,64.68h.31a11.8,11.8,0,0,0,11.37-12.21,1.69,1.69,0,0,0,0-.23A12.07,12.07,0,0,0,163.22,40.55Z" transform="translate(-4.24 -3.84)"/></svg>