<svg version="1.2" xmlns="http://www.w3.org/2000/svg" viewBox="0 0 309 24" width="309" height="24">
	<title>logo-svg</title>
	<style>
		.s0 { fill: #b42724 } 
		.s1 { fill: #000000 } 
	</style>
	<g id="Group_843">
		<g id="Group_766">
			<g id="Group_765">
				<path id="Path_14746" fill-rule="evenodd" class="s0" d="m187.4 23.6l-3-3.1q-0.3 0.4-0.7 0.7-0.3 0.4-0.7 0.7-0.4 0.3-0.8 0.6-0.5 0.3-0.9 0.5-0.5 0.2-0.9 0.4-0.5 0.2-1 0.3-0.5 0.1-1.1 0.2-0.5 0-1 0-0.4 0-0.7 0-0.4 0-0.7-0.1-0.4 0-0.7-0.1-0.4-0.1-0.7-0.2-0.3-0.1-0.6-0.2-0.3-0.2-0.6-0.3-0.3-0.2-0.6-0.3-0.2-0.2-0.5-0.4-0.5-0.4-0.9-0.9-0.5-0.5-0.7-1.1-0.3-0.6-0.5-1.2-0.1-0.6-0.1-1.3 0-0.3 0-0.6 0-0.2 0.1-0.5 0-0.3 0.1-0.6 0.1-0.2 0.2-0.5 0.1-0.2 0.2-0.5 0.1-0.2 0.3-0.5 0.1-0.2 0.3-0.4 0.1-0.2 0.3-0.4 0.2-0.2 0.4-0.4 0.2-0.2 0.4-0.4 0.2-0.2 0.4-0.4 0.2-0.2 0.4-0.4 0.2-0.2 0.5-0.4 0.2-0.2 0.5-0.3 0.2-0.2 0.5-0.4 0.2-0.1 0.5-0.3c-0.6-0.7-1.1-1.3-1.6-1.8q-0.1-0.2-0.3-0.4-0.1-0.1-0.2-0.3-0.2-0.2-0.3-0.4-0.1-0.2-0.2-0.4c-0.2-0.4-0.4-0.8-0.6-1.3q0-0.1-0.1-0.3 0-0.1 0-0.3-0.1-0.1-0.1-0.3 0-0.1 0-0.3 0-0.2 0-0.5 0-0.2 0.1-0.5 0-0.2 0.1-0.4 0.1-0.3 0.2-0.5 0.1-0.2 0.2-0.4 0.2-0.2 0.3-0.4 0.2-0.3 0.4-0.4 0.1-0.2 0.3-0.4 0.2-0.2 0.4-0.3 0.2-0.2 0.4-0.3 0.3-0.2 0.5-0.3 0.3-0.1 0.5-0.2 0.3-0.1 0.6-0.2 0.2-0.1 0.5-0.1 0.3-0.1 0.6-0.1 0.3 0 0.6 0 0.3 0 0.5 0 0.3 0 0.6 0.1 0.2 0 0.5 0.1 0.2 0 0.5 0.1 0.2 0.1 0.5 0.2 0.2 0.1 0.4 0.2 0.2 0.1 0.4 0.2 0.2 0.2 0.4 0.3 0.2 0.1 0.3 0.3 0.2 0.2 0.3 0.3 0.2 0.2 0.3 0.4 0.1 0.2 0.2 0.4 0.1 0.2 0.2 0.4 0.1 0.2 0.1 0.5 0.1 0.2 0.1 0.4 0 0.3 0 0.5 0 0.2 0 0.5 0 0.2-0.1 0.5 0 0.2-0.1 0.4-0.1 0.3-0.2 0.5-0.1 0.2-0.2 0.4-0.2 0.3-0.3 0.5-0.2 0.2-0.3 0.3-0.2 0.2-0.4 0.4c-0.5 0.5-1.1 1-1.7 1.5-0.6 0.5-1.3 0.9-2 1.4l7 7.3q0.2-0.3 0.4-0.7 0.1-0.3 0.3-0.7 0.1-0.3 0.2-0.7 0.1-0.3 0.2-0.7 0.1-0.4 0.2-0.8 0.1-0.4 0.1-0.8 0.1-0.4 0.1-0.8 0-0.4 0-0.8h1.4q0 0.9-0.1 1.8-0.2 1-0.4 1.8-0.3 0.9-0.6 1.8-0.4 0.8-0.9 1.6l4.2 4.4zm-10-1q0.4 0 0.9-0.1 0.4 0 0.8-0.1 0.5-0.1 0.9-0.3 0.4-0.1 0.8-0.3 0.4-0.2 0.7-0.5 0.4-0.2 0.7-0.5 0.3-0.3 0.6-0.6 0.3-0.3 0.6-0.6l-7.4-7.8c-0.6 0.4-1.2 0.9-1.8 1.3q-0.2 0.2-0.4 0.3-0.2 0.2-0.3 0.4-0.2 0.1-0.4 0.3-0.1 0.2-0.3 0.4-0.1 0.2-0.3 0.4-0.1 0.2-0.2 0.4-0.2 0.2-0.3 0.4-0.1 0.2-0.2 0.4-0.1 0.2-0.2 0.4 0 0.3-0.1 0.5 0 0.2 0 0.4 0 0.3 0 0.5 0 0.3 0 0.5 0.1 0.3 0.1 0.6 0.1 0.2 0.2 0.5 0.1 0.3 0.2 0.5 0.1 0.2 0.3 0.4 0.1 0.3 0.3 0.4 0.2 0.2 0.4 0.4 0.2 0.2 0.4 0.3 0.2 0.1 0.4 0.3 0.3 0.1 0.5 0.2 0.3 0.1 0.5 0.2 0.2 0.1 0.5 0.2 0.3 0 0.5 0.1 0.3 0 0.5 0 0.3 0.1 0.6 0.1 0.2 0 0.5 0zm-4.1-17.6q0 0.1 0 0.2 0 0.1 0 0.3 0 0.1 0 0.2 0.1 0.1 0.1 0.2 0 0.1 0.1 0.3 0.1 0.1 0.1 0.2 0.1 0.1 0.2 0.3 0 0.1 0.1 0.2 0.1 0.2 0.2 0.3 0.1 0.2 0.3 0.4 0.1 0.1 0.2 0.3 0.2 0.2 0.3 0.3 0.2 0.2 0.4 0.5 0.2 0.2 0.4 0.4 0.2 0.2 0.4 0.5 0.2 0.2 0.4 0.4 0.5-0.3 0.9-0.6 0.5-0.3 0.9-0.6 0.4-0.4 0.9-0.7 0.4-0.3 0.8-0.7 0.3-0.3 0.5-0.6 0.3-0.3 0.4-0.6 0.2-0.4 0.3-0.7 0.1-0.4 0.1-0.8 0-0.3-0.1-0.6 0-0.4-0.2-0.7-0.1-0.2-0.3-0.5-0.2-0.3-0.4-0.5-0.3-0.2-0.6-0.4-0.3-0.2-0.7-0.3-0.3-0.1-0.7-0.1-0.3-0.1-0.7-0.1-0.2 0-0.4 0-0.2 0-0.4 0.1-0.2 0-0.4 0.1-0.2 0-0.4 0.1-0.2 0.1-0.4 0.1-0.1 0.1-0.3 0.2-0.2 0.1-0.3 0.2-0.2 0.2-0.3 0.3-0.1 0.1-0.3 0.2-0.1 0.2-0.2 0.3-0.1 0.1-0.2 0.3-0.1 0.1-0.2 0.3-0.1 0.1-0.2 0.3-0.1 0.1-0.2 0.3-0.1 0.2-0.1 0.3 0 0.2 0 0.4z"/>
				<path id="Path_14747" fill-rule="evenodd" class="s1" d="m216.5 17.6q0 0.3 0 0.7-0.1 0.3-0.1 0.6-0.1 0.4-0.2 0.7-0.2 0.3-0.3 0.6-0.2 0.3-0.3 0.5-0.2 0.3-0.5 0.5-0.2 0.3-0.4 0.5-0.2 0.2-0.5 0.4-0.3 0.2-0.6 0.4-0.3 0.1-0.6 0.3-0.3 0.1-0.6 0.2-0.4 0.1-0.7 0.2-0.4 0.1-0.7 0.2-0.4 0.1-0.8 0.1-0.4 0.1-0.7 0.1-0.4 0-0.8 0h-11.3v-23.3h12.9q0.3 0 0.6 0 0.2 0.1 0.5 0.1 0.3 0.1 0.6 0.2 0.2 0.1 0.5 0.2 0.2 0.1 0.5 0.3 0.2 0.1 0.4 0.3 0.2 0.2 0.4 0.4 0.2 0.2 0.4 0.4 0.2 0.2 0.3 0.4 0.2 0.3 0.3 0.5 0.2 0.2 0.3 0.5 0.1 0.2 0.2 0.5 0.1 0.3 0.2 0.5 0 0.3 0.1 0.6 0 0.3 0.1 0.5 0 0.3 0 0.6 0 0.4-0.1 0.8 0 0.4-0.1 0.8-0.1 0.4-0.3 0.8-0.1 0.3-0.3 0.7-0.2 0.4-0.5 0.7-0.3 0.3-0.6 0.6-0.3 0.3-0.7 0.5-0.3 0.2-0.7 0.4 0.5 0.1 0.9 0.3 0.5 0.2 0.9 0.5 0.4 0.2 0.7 0.6 0.4 0.3 0.7 0.7 0.2 0.5 0.4 0.9 0.2 0.5 0.3 1 0.1 0.5 0.1 1 0.1 0.5 0.1 1zm-13.9-12.7v4.8h5.3q0.2 0 0.4 0 0.2-0.1 0.5-0.2 0.2 0 0.3-0.1 0.2-0.2 0.4-0.3 0.2-0.2 0.3-0.4 0.1-0.2 0.2-0.4 0.1-0.3 0.2-0.5 0-0.3 0-0.5 0-0.2 0-0.5-0.1-0.2-0.2-0.4 0-0.3-0.1-0.5-0.2-0.2-0.3-0.4-0.1-0.1-0.3-0.3-0.2-0.1-0.4-0.2-0.2 0-0.4-0.1-0.2 0-0.4 0zm8.4 11.6q0-0.2 0-0.5-0.1-0.2-0.1-0.5-0.1-0.2-0.2-0.4-0.1-0.2-0.3-0.4-0.1-0.2-0.3-0.3-0.2-0.2-0.4-0.3-0.2-0.1-0.4-0.1-0.3-0.1-0.5-0.1h-6.2v5.1h6q0.2 0 0.5 0 0.2-0.1 0.4-0.2 0.2-0.1 0.4-0.2 0.2-0.1 0.4-0.3 0.2-0.2 0.3-0.4 0.2-0.2 0.3-0.4 0.1-0.2 0.1-0.5 0-0.2 0-0.5z"/>
				<path id="Path_14748" fill-rule="evenodd" class="s1" d="m223 23.6v-23.3h10.5q0.4 0 0.8 0 0.4 0.1 0.7 0.2 0.4 0 0.8 0.2 0.4 0.1 0.7 0.3 0.3 0.2 0.7 0.4 0.3 0.2 0.6 0.4 0.3 0.2 0.6 0.5 0.2 0.2 0.5 0.5 0.3 0.3 0.5 0.6 0.2 0.3 0.4 0.6 0.2 0.3 0.4 0.6 0.2 0.4 0.3 0.7 0.1 0.3 0.3 0.7 0.1 0.4 0.2 0.7 0 0.4 0.1 0.8 0 0.3 0 0.7 0 0.5 0 1-0.1 0.6-0.2 1.1-0.2 0.5-0.4 1-0.1 0.4-0.4 0.9-0.2 0.4-0.5 0.8-0.3 0.5-0.7 0.8-0.3 0.4-0.8 0.7-0.4 0.3-0.8 0.5l5.1 8.7h-6.1l-4.5-7.5h-3.5v7.5zm5.3-12.2h4.9q0.2 0 0.5 0 0.2-0.1 0.4-0.2 0.2-0.1 0.4-0.3 0.2-0.2 0.3-0.4 0.2-0.3 0.3-0.5 0.1-0.3 0.2-0.6 0.1-0.3 0.2-0.6 0-0.3 0-0.6 0-0.3 0-0.6-0.1-0.3-0.2-0.6-0.1-0.3-0.2-0.6-0.2-0.3-0.4-0.5-0.2-0.2-0.4-0.3-0.1-0.2-0.4-0.3-0.2-0.1-0.4-0.2-0.3-0.1-0.5-0.1h-4.8z"/>
				<path id="Path_14749" class="s1" d="m264.6 18.8v4.7h-16.4v-23.2h16.1v4.7h-10.7v4.5h9.2v4.4h-9.2v5z"/>
				<path id="Path_14750" class="s1" d="m278.8 0.3h4.9l2.4 7.4 2.4-7.4h5l-3.9 10.8 2.4 6.3 5.8-17.1h5.9l-9.3 23.3h-4.5l-3.7-9.1-3.7 9.1h-4.5l-9.3-23.3h5.8l5.9 17.1 2.3-6.3z"/>
				<path id="Path_14747 copy" fill-rule="evenodd" class="s1" d="m21.5 17.6q0 0.3 0 0.7-0.1 0.3-0.1 0.6-0.1 0.4-0.2 0.7-0.2 0.3-0.3 0.6-0.2 0.3-0.3 0.5-0.2 0.3-0.5 0.5-0.2 0.3-0.4 0.5-0.2 0.2-0.5 0.4-0.3 0.2-0.6 0.4-0.3 0.1-0.6 0.3-0.3 0.1-0.6 0.2-0.4 0.1-0.7 0.2-0.4 0.1-0.7 0.2-0.4 0.1-0.8 0.1-0.4 0.1-0.7 0.1-0.4 0-0.8 0h-11.3v-23.3h12.9q0.3 0 0.6 0 0.2 0.1 0.5 0.1 0.3 0.1 0.6 0.2 0.2 0.1 0.5 0.2 0.2 0.1 0.5 0.3 0.2 0.1 0.4 0.3 0.2 0.2 0.4 0.4 0.2 0.2 0.4 0.4 0.2 0.2 0.3 0.4 0.2 0.3 0.3 0.5 0.2 0.2 0.3 0.5 0.1 0.2 0.2 0.5 0.1 0.3 0.2 0.5 0 0.3 0.1 0.6 0 0.3 0.1 0.5 0 0.3 0 0.6 0 0.4-0.1 0.8 0 0.4-0.1 0.8-0.1 0.4-0.3 0.8-0.1 0.3-0.3 0.7-0.2 0.4-0.5 0.7-0.3 0.3-0.6 0.6-0.3 0.3-0.7 0.5-0.3 0.2-0.7 0.4 0.5 0.1 0.9 0.3 0.5 0.2 0.9 0.5 0.4 0.2 0.7 0.6 0.4 0.3 0.7 0.7 0.2 0.5 0.4 0.9 0.2 0.5 0.3 1 0.1 0.5 0.1 1 0.1 0.5 0.1 1zm-13.9-12.7v4.8h5.3q0.2 0 0.4 0 0.2-0.1 0.5-0.2 0.2 0 0.3-0.1 0.2-0.2 0.4-0.3 0.2-0.2 0.3-0.4 0.1-0.2 0.2-0.4 0.1-0.3 0.2-0.5 0-0.3 0-0.5 0-0.2 0-0.5-0.1-0.2-0.2-0.4 0-0.3-0.1-0.5-0.2-0.2-0.3-0.4-0.1-0.1-0.3-0.3-0.2-0.1-0.4-0.2-0.2 0-0.4-0.1-0.2 0-0.4 0zm8.4 11.6q0-0.2 0-0.5-0.1-0.2-0.1-0.5-0.1-0.2-0.2-0.4-0.1-0.2-0.3-0.4-0.1-0.2-0.3-0.3-0.2-0.2-0.4-0.3-0.2-0.1-0.4-0.1-0.3-0.1-0.5-0.1h-6.2v5.1h6q0.2 0 0.5 0 0.2-0.1 0.4-0.2 0.2-0.1 0.4-0.2 0.2-0.1 0.4-0.3 0.2-0.2 0.3-0.4 0.2-0.2 0.3-0.4 0.1-0.2 0.1-0.5 0-0.2 0-0.5z"/>
				<path id="Path_14748 copy" fill-rule="evenodd" class="s1" d="m25 23.6v-23.3h10.5q0.4 0 0.8 0 0.4 0.1 0.7 0.2 0.4 0 0.8 0.2 0.4 0.1 0.7 0.3 0.3 0.2 0.7 0.4 0.3 0.2 0.6 0.4 0.3 0.2 0.6 0.5 0.2 0.2 0.5 0.5 0.3 0.3 0.5 0.6 0.2 0.3 0.4 0.6 0.2 0.3 0.4 0.6 0.2 0.4 0.3 0.7 0.1 0.3 0.3 0.7 0.1 0.4 0.2 0.7 0 0.4 0.1 0.8 0 0.3 0 0.7 0 0.5 0 1-0.1 0.6-0.2 1.1-0.2 0.5-0.4 1-0.1 0.4-0.4 0.9-0.2 0.4-0.5 0.8-0.3 0.5-0.7 0.8-0.3 0.4-0.8 0.7-0.4 0.3-0.8 0.5l5.1 8.7h-6.1l-4.5-7.5h-3.5v7.5zm5.3-12.2h4.9q0.2 0 0.5 0 0.2-0.1 0.4-0.2 0.2-0.1 0.4-0.3 0.2-0.2 0.3-0.4 0.2-0.3 0.3-0.5 0.1-0.3 0.2-0.6 0.1-0.3 0.2-0.6 0-0.3 0-0.6 0-0.3 0-0.6-0.1-0.3-0.2-0.6-0.1-0.3-0.2-0.6-0.2-0.3-0.4-0.5-0.2-0.2-0.4-0.3-0.1-0.2-0.4-0.3-0.2-0.1-0.4-0.2-0.3-0.1-0.5-0.1h-4.8z"/>
				<path id="Path_14749 copy" class="s1" d="m63.6 18.8v4.7h-16.4v-23.2h16.1v4.7h-10.7v4.5h9.2v4.4h-9.2v5z"/>
				<path id="Path_14748 copy 2" fill-rule="evenodd" class="s1" d="m120 23.6v-23.3h10.5q0.4 0 0.8 0 0.4 0.1 0.7 0.2 0.4 0 0.8 0.2 0.4 0.1 0.7 0.3 0.3 0.2 0.7 0.4 0.3 0.2 0.6 0.4 0.3 0.2 0.6 0.5 0.2 0.2 0.5 0.5 0.3 0.3 0.5 0.6 0.2 0.3 0.4 0.6 0.2 0.3 0.4 0.6 0.2 0.4 0.3 0.7 0.1 0.3 0.3 0.7 0.1 0.4 0.2 0.7 0 0.4 0.1 0.8 0 0.3 0 0.7 0 0.5 0 1-0.1 0.6-0.2 1.1-0.2 0.5-0.4 1-0.1 0.4-0.4 0.9-0.2 0.4-0.5 0.8-0.3 0.5-0.7 0.8-0.3 0.4-0.8 0.7-0.4 0.3-0.8 0.5l5.1 8.7h-6.1l-4.5-7.5h-3.5v7.5zm5.3-12.2h4.9q0.2 0 0.5 0 0.2-0.1 0.4-0.2 0.2-0.1 0.4-0.3 0.2-0.2 0.3-0.4 0.2-0.3 0.3-0.5 0.1-0.3 0.2-0.6 0.1-0.3 0.2-0.6 0-0.3 0-0.6 0-0.3 0-0.6-0.1-0.3-0.2-0.6-0.1-0.3-0.2-0.6-0.2-0.3-0.4-0.5-0.2-0.2-0.4-0.3-0.1-0.2-0.4-0.3-0.2-0.1-0.4-0.2-0.3-0.1-0.5-0.1h-4.8z"/>
				<path id="Shape 1" class="s1" d="m142-0.3h5.3l4.2 8.5 4.2-8.5h5.3l-7.4 13.7v10.6h-5.3v-10.6z"/>
				<path id="Path_14749 copy 2" class="s1" d="m115.6 18.8v4.7h-16.4v-23.2h16.1v4.7h-10.7v4.5h9.2v4.4h-9.2v5z"/>
				<path id="Path_14750 copy" class="s1" d="m75.2 0.3h4.1l2 7.4 2-7.4h4.2l-3.3 10.8 2 6.3 4.9-17.1h4.9l-7.8 23.3h-3.8l-3-9.1-3.1 9.1h-3.8l-7.8-23.3h4.9l4.9 17.1 1.9-6.3z"/>
			</g>
		</g>
	</g>
</svg>