<svg id="Layer_1" data-name="Layer 1" xmlns="http://www.w3.org/2000/svg" viewBox="0 0 216 216"><defs><style>.cls-1{fill:#fff;}</style></defs><path class="cls-1" d="M124.79,211.51c0-22.95.13-45.09-.1-67.23,0-4.5,1.76-5,5.56-5.09,6.22-.12,14.41,2.85,18.14-1.34,3.58-4,2.73-12,3.78-18.21,1.86-11.06,1.84-11.06-9.37-11.06-18.71,0-18.71,0-18-18.34.46-12,5.45-17.38,19-16.69,10.11.52,11.76-3.11,11.3-12-.75-14.82-.22-14.66-15.29-15.88a68.16,68.16,0,0,0-19.7.86C103.37,50,92.61,63.82,92,82.2c-.23,7.19-.24,14.4,0,21.59.14,3.83-1.22,5-4.93,4.85-5.17-.25-10.4.32-15.54-.17-5.6-.53-7.28,1.81-6.54,6.9a12.34,12.34,0,0,1,0,1.72c.52,7.12-3,16.12,1.43,20.84,4.12,4.36,13.08,1.09,19.9,1.28,3.66.1,5.74.36,5.69,5-.15,22.42,0,44.79,0,67.33a103.81,103.81,0,0,1-87.52-111C8.54,47.38,53.85,5.34,107.59,4.86c53.46-.48,99.74,41.32,104.35,94.25C216.71,154,179.94,201.88,124.79,211.51Z"/></svg>