<svg version="1.2" xmlns="http://www.w3.org/2000/svg" viewBox="0 0 159 54" width="159" height="54">
	<title>logo-footer-svg</title>
	<style>
		.s0 { fill: #ffffff } 
	</style>
	<g id="Group_765">
		<path id="Path_14746" fill-rule="evenodd" class="s0" d="m17.8 51.7l-3-3.1c-0.9 1-1.9 1.9-3.1 2.5-1.2 0.6-2.6 1-4 0.9-0.9 0-1.9-0.1-2.8-0.4-0.8-0.3-1.6-0.7-2.3-1.2-1.4-1.1-2.2-2.7-2.2-4.5 0-0.8 0.1-1.5 0.4-2.2 0.2-0.7 0.6-1.3 1.1-1.8 0.5-0.6 1-1.1 1.6-1.6 0.6-0.5 1.3-1 2-1.4-0.6-0.7-1.1-1.3-1.6-1.8-0.4-0.5-0.7-1-1-1.5-0.2-0.4-0.4-0.8-0.6-1.3-0.1-0.4-0.2-0.8-0.2-1.2 0-0.7 0.1-1.3 0.4-1.9 0.3-0.6 0.7-1.1 1.2-1.6 0.5-0.5 1.1-0.9 1.8-1.1 0.7-0.3 1.5-0.4 2.3-0.4q1 0 2.1 0.3c0.6 0.2 1.2 0.5 1.7 0.9 0.4 0.4 0.8 0.9 1.1 1.4 0.3 0.6 0.4 1.2 0.4 1.8 0 0.7-0.1 1.3-0.4 1.9-0.3 0.6-0.7 1.2-1.2 1.6-0.5 0.5-1.1 1-1.7 1.5-0.6 0.5-1.3 0.9-2 1.4l7 7.3c0.5-0.9 0.9-1.8 1.1-2.8 0.3-1 0.4-2.1 0.4-3.2h1.4c0 2.5-0.7 4.9-2 7l4.2 4.4zm-10-1c1.2 0 2.3-0.3 3.4-0.8 1-0.6 1.9-1.3 2.6-2.2l-7.4-7.8c-0.6 0.4-1.2 0.9-1.8 1.3-0.5 0.4-1 0.9-1.4 1.4-0.4 0.5-0.7 1-1 1.6q-0.3 0.9-0.3 1.8c0 0.7 0.2 1.4 0.5 2.1 0.3 0.6 0.8 1.1 1.4 1.5 0.5 0.4 1.2 0.7 1.9 0.9 0.7 0.1 1.4 0.2 2.1 0.2zm-4.1-17.6c0 0.3 0 0.6 0.1 0.9 0.1 0.4 0.3 0.7 0.5 1 0.3 0.5 0.6 0.9 1 1.3 0.5 0.6 1 1.2 1.6 1.8 1.2-0.8 2.4-1.6 3.5-2.6 0.8-0.7 1.3-1.7 1.3-2.7 0-0.9-0.4-1.7-1-2.3q-1.2-0.9-2.7-0.9c-0.5 0-1.1 0.1-1.6 0.3-0.5 0.2-0.9 0.4-1.3 0.8-0.4 0.3-0.7 0.7-0.9 1.1-0.4 0.3-0.6 0.8-0.5 1.3z"/>
		<path id="Path_14747" fill-rule="evenodd" class="s0" d="m46.9 45.7c0 0.9-0.2 1.8-0.6 2.6-0.4 0.7-1 1.4-1.7 1.9-0.8 0.5-1.6 0.9-2.5 1.1-1 0.3-2 0.4-3 0.4h-11.3v-23.3h12.9c0.8 0 1.5 0.2 2.2 0.5 0.7 0.3 1.2 0.8 1.7 1.4 0.5 0.6 0.8 1.2 1.1 1.9 0.2 0.7 0.4 1.5 0.4 2.2 0 1.1-0.3 2.1-0.8 3.1-0.6 1-1.5 1.8-2.5 2.2 1.3 0.3 2.4 1.1 3.2 2.1 0.6 1.2 0.9 2.6 0.9 3.9zm-13.9-12.7v4.8h5.3c0.6 0 1.2-0.2 1.6-0.6 0.5-0.5 0.7-1.1 0.7-1.8 0-0.6-0.2-1.3-0.6-1.8-0.4-0.4-1-0.6-1.5-0.6zm8.4 11.6q0-1.1-0.6-1.8c-0.4-0.5-1-0.8-1.6-0.8h-6.2v5.1h6c0.6 0 1.3-0.2 1.7-0.7 0.5-0.4 0.7-1.1 0.7-1.8z"/>
		<path id="Path_14748" fill-rule="evenodd" class="s0" d="m53.4 51.7v-23.3h10.5c1 0 2.1 0.2 3 0.7q1.4 0.7 2.4 1.8c0.7 0.7 1.2 1.6 1.6 2.5 0.4 0.9 0.6 1.9 0.6 2.9 0 1.4-0.3 2.8-1 4-0.6 1.2-1.6 2.2-2.8 2.8l5.1 8.7h-6.1l-4.5-7.5h-3.5v7.5zm5.3-12.2h4.9c0.7 0 1.3-0.3 1.6-0.9 0.5-0.7 0.7-1.5 0.7-2.3 0-0.8-0.2-1.7-0.8-2.3-0.4-0.5-1-0.8-1.7-0.9h-4.8z"/>
		<path id="Path_14749" class="s0" d="m95 46.9v4.7h-16.4v-23.2h16.1v4.7h-10.7v4.5h9.2v4.4h-9.2v5z"/>
		<path id="Path_14750" class="s0" d="m109.2 28.4h4.9l2.4 7.4 2.4-7.4h5l-3.9 10.8 2.4 6.3 5.8-17.1h5.9l-9.3 23.3h-4.5l-3.7-9.1-3.7 9.1h-4.5l-9.3-23.3h5.8l5.9 17.1 2.3-6.3z"/>
		<path id="Path_14747 copy" fill-rule="evenodd" class="s0" d="m21.9 18.7c0 0.9-0.2 1.8-0.6 2.6-0.4 0.7-1 1.4-1.7 1.9-0.8 0.5-1.6 0.9-2.5 1.1-1 0.3-2 0.4-3 0.4h-11.3v-23.3h12.9c0.8 0 1.5 0.2 2.2 0.5 0.7 0.3 1.2 0.8 1.7 1.4 0.5 0.6 0.8 1.2 1.1 1.9 0.2 0.7 0.4 1.5 0.4 2.2 0 1.1-0.3 2.1-0.8 3.1-0.6 1-1.5 1.8-2.5 2.2 1.3 0.3 2.4 1.1 3.2 2.1 0.6 1.2 0.9 2.6 0.9 3.9zm-13.9-12.7v4.8h5.3c0.6 0 1.2-0.2 1.6-0.6 0.5-0.5 0.7-1.1 0.7-1.8 0-0.6-0.2-1.3-0.6-1.8-0.4-0.4-1-0.6-1.5-0.6zm8.4 11.6q0-1-0.6-1.8c-0.4-0.5-1-0.8-1.6-0.8h-6.2v5.1h6c0.6 0 1.3-0.2 1.7-0.7 0.5-0.4 0.7-1.1 0.7-1.8z"/>
		<path id="Path_14748 copy" fill-rule="evenodd" class="s0" d="m24.4 24.7v-23.3h10.5c1 0 2.1 0.2 3 0.7q1.4 0.8 2.4 1.8c0.7 0.7 1.2 1.6 1.6 2.5 0.4 0.9 0.6 1.9 0.6 2.9 0 1.4-0.3 2.8-1 4-0.6 1.2-1.6 2.2-2.8 2.8l5.1 8.7h-6.1l-4.5-7.5h-3.5v7.5zm5.3-12.2h4.9c0.7 0 1.3-0.3 1.6-0.9 0.5-0.7 0.7-1.5 0.7-2.3 0-0.8-0.2-1.7-0.8-2.3-0.4-0.5-1-0.8-1.7-0.9h-4.8z"/>
		<path id="Path_14749 copy" class="s0" d="m63 19.9v4.7h-16.4v-23.2h16.1v4.7h-10.7v4.5h9.2v4.4h-9.2v5z"/>
		<path id="Path_14748 copy 2" fill-rule="evenodd" class="s0" d="m119.4 24.7v-23.3h10.5c1 0 2.1 0.2 3 0.7q1.3 0.8 2.4 1.8c0.7 0.7 1.2 1.6 1.6 2.5 0.4 0.9 0.6 1.9 0.6 2.9 0 1.4-0.3 2.8-1 4-0.6 1.2-1.6 2.2-2.8 2.8l5.1 8.7h-6.1l-4.5-7.5h-3.5v7.5zm5.3-12.2h4.9c0.7 0 1.3-0.3 1.6-0.9 0.5-0.7 0.7-1.5 0.7-2.3 0-0.8-0.2-1.7-0.8-2.3-0.4-0.5-1-0.8-1.7-0.9h-4.8z"/>
		<path id="Path_14749 copy 2" class="s0" d="m115 19.9v4.7h-16.4v-23.2h16.1v4.7h-10.7v4.5h9.2v4.4h-9.2v5z"/>
		<path id="Path_14750 copy" class="s0" d="m75 1.4h4.3l2.2 7.4 2.1-7.4h4.4l-3.4 10.8 2.1 6.3 5.1-17.1h5.2l-8.2 23.3h-4l-3.2-9.1-3.3 9.1h-4l-8.2-23.3h5.1l5.2 17.1 2.1-6.3z"/>
		<path id="Path_14750 copy 2" class="s0" d="m75 1.4h4.3l2.2 7.4 2.1-7.4h4.4l-3.4 10.8 2.1 6.3 5.1-17.1h5.2l-8.2 23.3h-4l-3.2-9.1-3.3 9.1h-4l-8.2-23.3h5.1l5.2 17.1 2.1-6.3z"/>
		<path id="Shape 1" class="s0" d="m140 2h5l4 8 4-8h5l-7 13v10h-5v-10z"/>
	</g>
</svg>